<svg width="1024" height="1024" viewBox="0 0 1024 1024" fill="none" xmlns="http://www.w3.org/2000/svg">
<path fill-rule="evenodd" clip-rule="evenodd" d="M386.73 281.467H660.063C768.31 281.467 857.089 364.66 865.715 470.478C866.402 481.482 866.402 492.569 866.402 503.453V504.79C866.402 507.745 868.802 510.139 871.762 510.139H906.598C909.558 510.139 911.958 507.745 911.958 504.79V503.453C911.958 501.477 911.968 499.506 911.979 497.54L911.979 497.51C912.001 493.384 912.023 489.28 911.948 485.193C910.758 347.364 798.441 236 660.063 236H386.73C250.432 236 139.417 344.042 134.973 478.997C124.211 479.809 112.833 481.962 102.049 486.198C90.1691 490.865 78.2359 498.381 69.1204 510.176C59.8592 522.159 54.6021 537.155 54.0426 554.763C53.4547 573.266 58.9556 589.085 70.1701 600.99C80.8674 612.346 94.7934 618.047 107.503 620.884C129.854 625.875 160.618 622.571 175.908 619.445C178.772 619.112 180.851 616.579 180.696 613.706C180.493 609.966 180.391 606.2 180.391 602.411V487.406C180.391 373.669 272.772 281.467 386.73 281.467ZM118.736 528.511C123.696 526.563 129.234 525.341 134.835 524.684V578.237C128.801 578.216 122.834 577.711 117.449 576.508C110.002 574.846 105.672 572.292 103.364 569.842C101.574 567.941 99.3205 564.404 99.581 556.205C99.87 547.111 102.388 541.584 105.197 537.949C108.152 534.125 112.585 530.928 118.736 528.511Z" fill="white"/>
<path d="M813.675 764.323C811.314 762.335 811.126 758.775 813.198 756.488C846.266 719.966 866.402 671.559 866.402 618.458V543.571C866.402 540.617 868.802 538.222 871.762 538.222H906.598C909.558 538.222 911.958 540.617 911.958 543.571V618.458C911.958 682.948 887.629 741.766 847.631 786.269C845.725 788.39 842.478 788.579 840.296 786.741L813.675 764.323Z" fill="white"/>
<path d="M373.776 582.971C407.935 582.971 435.626 555.904 435.626 522.514C435.626 489.125 407.935 462.057 373.776 462.057C339.617 462.057 311.926 489.125 311.926 522.514C311.926 555.904 339.617 582.971 373.776 582.971Z" fill="white"/>
<path d="M725.135 522.514C725.135 555.904 697.444 582.971 663.285 582.971C629.127 582.971 601.436 555.904 601.436 522.514C601.436 489.125 629.127 462.057 663.285 462.057C697.444 462.057 725.135 489.125 725.135 522.514Z" fill="white"/>
<path d="M548.849 591.378L548.753 591.425C544.784 593.38 542.444 594.452 540.275 594.87C537.017 595.498 531.754 596.078 523.794 596.113C515.835 596.078 510.572 595.498 507.314 594.87C505.145 594.452 502.804 593.38 498.836 591.425L498.74 591.378C497.312 590.675 495.647 589.854 493.938 589.103L491.513 588.036C487.861 586.429 483.911 585.6 479.918 585.6H478.718C464.436 585.6 452.512 596.533 451.487 610.737C450.989 617.64 453.148 624.776 458.125 630.259C468.952 642.187 479.18 649.704 490.337 654.046C501.382 658.345 512.371 659.135 523.73 659.2L523.794 659.2L523.859 659.2C535.218 659.135 546.207 658.345 557.252 654.046C568.409 649.704 578.637 642.187 589.464 630.259C594.441 624.776 596.6 617.64 596.102 610.737C595.077 596.533 583.153 585.6 568.871 585.6H567.671C563.678 585.6 559.728 586.429 556.076 588.036L553.651 589.103C551.944 589.854 550.28 590.673 548.853 591.376L548.849 591.378Z" fill="white"/>
<path fill-rule="evenodd" clip-rule="evenodd" d="M375.092 317.486C284.971 317.486 211.914 390.451 211.914 480.457V625.029C211.914 715.035 284.971 788 375.092 788H664.601C754.722 788 827.779 715.035 827.779 625.029V480.457C827.779 390.451 754.722 317.486 664.601 317.486H375.092ZM664.601 362.171H375.092C309.682 362.171 256.656 415.13 256.656 480.457V625.029C256.656 690.356 309.682 743.314 375.092 743.314H664.601C730.011 743.314 783.037 690.356 783.037 625.029V480.457C783.037 415.13 730.011 362.171 664.601 362.171Z" fill="white"/>
</svg>
